<?xml version="1.0" standalone="no"?><!DOCTYPE svg PUBLIC "-//W3C//DTD SVG 1.1//EN" "http://www.w3.org/Graphics/SVG/1.1/DTD/svg11.dtd"><svg class="icon" width="200px" height="200.00px" viewBox="0 0 1024 1024" version="1.1" xmlns="http://www.w3.org/2000/svg"><path d="M784.56658377 238.65242317c-150.7316638-150.7316638-395.96348987-150.7316638-546.69515368 0s-150.7316638 395.96348987 0 546.69515366c75.49599742 75.23566638 174.42178713 112.9836651 273.34757683 112.98366509s198.11191045-37.74799869 273.34757685-112.98366509c150.7316638-150.7316638 150.7316638-395.96348987 0-546.69515366zM738.48799221 739.26898532c-62.73977717 62.73977717-145.00438124 93.97950021-227.26898529 93.97950021-82.26460406 0-164.78953919-31.23972305-227.26898531-93.97950021-125.47955431-125.47955431-125.47955431-329.31874733 0-454.79830164 62.73977717-62.73977717 145.00438124-93.97950021 227.26898531-93.97950023s164.78953919 31.23972305 227.26898529 93.97950023c125.21922329 125.47955431 125.21922329 329.31874733 0 454.79830164z" fill="#d81e06" /><path d="M662.21100174 405.0039485l-46.33892254-45.81826048-105.17373434 106.73572046-106.47538945-105.17373436-45.81826048 46.33892258 106.73572048 105.17373434-105.17373435 106.47538944 46.33892256 45.81826048 105.17373434-106.73572046 106.47538943 105.17373432 45.81826051-46.33892254-106.73572048-105.17373432z" fill="#d81e06" /></svg>